<svg id="图层_1" data-name="图层 1" xmlns="http://www.w3.org/2000/svg" width="128" height="128" viewBox="0 0 128 128"><defs><style>.cls-1{fill:#377ff4;}.cls-2{fill:#ef9c22;}.cls-3{fill:#fff;}</style></defs><title>console2</title><path class="cls-1" d="M64,0a64,64,0,1,0,64,64A64,64,0,0,0,64,0Zm39.19,96H24.83A12,12,0,0,1,14.2,89.61a56,56,0,1,1,99.54.12A11.84,11.84,0,0,1,103.19,96Z"/><circle class="cls-2" cx="64" cy="69.84" r="10"/><path class="cls-2" d="M54,69.84l8-40.24a2,2,0,0,1,3.9,0l8,40.24Z"/><circle class="cls-3" cx="64" cy="69.84" r="4"/><path class="cls-1" d="M64,20h0a4,4,0,0,0,4-4V6H60V16A4,4,0,0,0,64,20Z"/><path class="cls-1" d="M42,25.89h0a4,4,0,0,0,1.46-5.46l-5-8.66-6.92,4,5,8.66A4,4,0,0,0,42,25.89Z"/><path class="cls-1" d="M25.89,42h0a4,4,0,0,0-1.46-5.46l-8.66-5-4,6.92,8.66,5A4,4,0,0,0,25.89,42Z"/><path class="cls-1" d="M20,64h0a4,4,0,0,0-4-4H6v8H16A4,4,0,0,0,20,64Z"/><path class="cls-1" d="M86,25.89h0a4,4,0,0,0,5.46-1.46l5-8.66-6.92-4-5,8.66A4,4,0,0,0,86,25.89Z"/><path class="cls-1" d="M102.11,42h0a4,4,0,0,0,5.46,1.46l8.66-5-4-6.92-8.66,5A4,4,0,0,0,102.11,42Z"/><path class="cls-1" d="M108,64h0a4,4,0,0,0,4,4h10V60H112A4,4,0,0,0,108,64Z"/></svg>